<?xml version="1.0" encoding="UTF-8"?><svg id="Layer_2" xmlns="http://www.w3.org/2000/svg" viewBox="0 0 343.21 346.79"><g id="Layer_1-2"><polygon points="250.14 32.13 236.67 11.64 234.02 .32 230.55 0 225.91 2.03 223.83 4.51 221.21 8.75 216.59 13.63 210 17.82 199.98 20.14 192.41 19.17 186.72 14.01 186.15 12.62 181.58 20.12 176.07 24.12 170.63 29.91 165.88 36.22 158.54 39.38 151.84 40.78 150.15 40.93 167.26 55.89 170.21 62.21 170.56 72.03 169.88 77.78 164.86 85.49 118.41 104.44 116.16 106.09 115.2 107.4 113.23 114.98 110.54 119.65 105.85 123.54 99.75 125.38 82.43 122.16 78.48 122.1 77.19 122.42 72.11 126.34 71.96 129.18 68.68 134.32 62.44 136.4 50.43 132.5 46.46 129.84 43.46 126.69 41.96 123.74 37.93 125.84 28.65 128.79 20.35 129.9 7.94 126.61 3.14 123.17 2.41 127.02 3.67 153.88 1.1 163.93 0 165.22 .04 165.34 6.62 172.86 9.57 177.54 11.54 183.74 11.13 188.48 14.47 202.67 30.32 222.72 47.23 236.21 52.63 236.63 57.6 239.61 63.77 244.82 73.44 255.58 84.12 271.87 85.44 276.6 86 279.29 86.4 280.26 89.32 284.55 89.99 287.37 90.55 289.05 91.34 290.36 99.23 297.15 107.56 302.29 111.55 306.65 115.33 312.86 115.61 313.02 119.33 309.41 122.99 304.03 141.17 303.94 160.53 324.87 165.99 329 198.18 340.35 199.46 338.93 201.35 337.8 203.69 336.79 206.81 335.99 207.6 335.57 208.37 334.99 209.71 333.24 217.51 326.9 221.57 324.31 226.93 322.24 232.18 321.79 238.05 322.61 242.91 324.63 248.42 324.8 251.25 324.18 253.47 323.37 255.54 321.61 260.82 314.96 265.64 312.77 271.16 313.83 271.79 314.66 274.28 313.36 278.9 312.85 285.5 315.04 289.88 315.94 295.58 314.05 307.6 311.89 305.22 324.17 305.38 329.51 306.56 337.09 308.76 342.49 311.75 346.79 312.45 341.61 317.88 342.85 322.8 344.39 326.97 341.81 332.26 335.01 336.38 326.99 339.26 317.65 339.34 310.69 337 304.45 332.33 297.87 330.42 296.6 322.2 295.31 316.57 290.54 316.52 290.35 316.12 289.29 314.93 285.14 313.89 274.55 312.6 270.65 312.07 269.68 307.2 260.42 304.71 257.84 298.36 254.93 297.65 253.31 293.74 242.3 295.12 224.78 292.56 211.96 297.05 210.68 320.02 205.52 326.09 202.91 331.56 199.58 334.41 196.62 336.23 191.84 336.18 188.06 326.19 159.18 323.58 145.18 319.52 98.1 321.05 90.33 325.86 80.03 330.41 73.95 341.29 63.07 343.21 59.56 342.15 48.21 338.57 33.38 332.48 35.32 323.43 37.13 293.58 31.71 286.6 31.99 287.96 34.03 283.28 40.67 277.54 44.23 270.03 47.05 251.18 49.82 252.59 39.58 250.14 32.13" fill="#0d172e"/></g></svg>