<?xml version="1.0" encoding="UTF-8"?><svg id="Layer_2" xmlns="http://www.w3.org/2000/svg" viewBox="0 0 296.54 533.92"><g id="Layer_1-2"><polygon points="295.92 224.69 293.35 216.19 289.6 209.54 279.02 196.9 266.71 185.29 266.33 184.53 264.36 180.15 263.4 175.47 262.44 173.01 255.99 167.82 256.69 166.97 257.82 165.35 258.96 163.89 264.95 156.65 267.03 146.52 266.09 121.58 265.8 107.64 262.91 99.18 257.63 94.13 238.43 88.58 217.98 85.81 211.38 87.49 197.87 98.95 188.99 102.59 176.07 99.63 164.96 90.12 164.54 89.36 158.37 76.61 150.15 44.94 142.07 9.77 138.56 2.67 135.89 .64 132.6 .17 127.73 .46 123.54 0 123.69 4.28 125.17 12.48 125.36 16.19 123.72 27.46 121.44 32.05 117.48 35.31 110.73 34.59 95.65 29.12 94.22 28.97 93.58 28.98 91.37 29.96 75.17 39.85 71.25 41.33 68.57 41.92 54.96 46.62 53.22 47.79 51.54 49.78 49.39 56.11 48.5 60.2 47.59 68.72 46.17 74.88 44.36 79.95 35.99 84.25 39.49 95.23 41.6 99.32 54.27 115.67 59.35 123.61 71.52 149.85 64.37 164.48 60.22 171.14 53.81 176.42 46.18 179.74 14.76 183.62 1.01 187.56 0 189.41 3.39 193.51 5.79 197.9 14.89 219.23 18.44 230.13 24.99 241.05 25.94 244.31 28.46 247.88 30.2 253.25 32.4 255.83 33.02 256.25 33.9 256.27 36.03 256.07 39.47 256.63 41.56 257.85 42.43 258.1 47.06 258.77 50.88 260.37 54.63 264.39 55.79 267.12 55.61 268.74 56.39 270.54 56.29 273.76 53.32 282.35 50.69 286.07 49.95 289.67 49.83 291.06 50.02 292.39 50.27 292.97 54.43 297.41 56.49 302.38 57.3 308.5 55.69 330.53 55.8 332.98 59.75 341.29 72.76 343.85 63.42 353.19 62.49 354.53 61.59 356.64 60.65 359.48 60.56 362.64 61.43 365.23 68.07 373.21 71.16 378.2 72.54 383.29 72.97 392.76 69.26 407.65 69.78 410.67 77.08 433.03 80.99 433.96 84.45 434.22 88.13 435.09 92.58 439.11 89.49 444.19 84.95 448.84 83.26 451.17 82.61 452.59 82.45 454.49 82.8 457.31 83.4 459.99 93.98 485.85 96.2 495.86 98.35 498.82 117.96 519.58 124.19 528.3 129.86 533.92 137.19 530.37 138.9 529.11 140.18 526.35 146.13 509.24 146.42 507.95 144.51 498.6 144.32 495.71 142.92 489.58 143.14 484.51 146.35 479.59 147.8 478.89 153.34 477.16 154.04 476.6 157.94 465.45 157.95 455.04 157.03 444.18 159.14 430.12 163.35 423.43 168.49 419.78 172.97 417.38 174.93 415.59 182.07 397.28 186.64 388.64 188.24 384.65 189.39 378.93 189.15 373.83 187.17 358.87 188.11 351.37 189.3 350.59 193.56 346.08 202.73 343.85 204.91 342.56 207.43 338.37 208.89 333.48 211.66 327.76 212.55 326.98 219.19 322.39 232.47 322.02 242.56 326.74 249.43 328.33 257.45 322.77 260.8 317.89 261.91 315.57 262.64 313.63 262.26 306.6 265.97 299.65 271.68 295.66 275.72 294.54 278.26 289.62 282.67 286 286.24 283.84 288.05 281.83 289.75 277.39 290.21 273.93 290.29 269.76 291.03 262.96 295.3 243.77 296.54 234.44 295.92 224.69" fill="#0c162d"/></g></svg>