<?xml version="1.0" encoding="UTF-8"?><svg id="Layer_2" xmlns="http://www.w3.org/2000/svg" viewBox="0 0 381.03 468.21"><g id="Layer_1-2"><polygon points="19.63 55.31 17.96 55.85 15.81 60.59 14.2 63.12 11.99 66.05 10.1 68.08 8.81 69.84 7.92 71.72 5.82 78.05 3.41 82.13 0 85.37 7.15 94.57 8.76 99.34 9.92 105.54 10.43 122.91 9.72 128.34 9.98 135.19 11.65 144.88 17.78 166.78 19.61 176.35 19.81 183.85 18.48 186.36 18.33 187.14 18.41 189.5 18.07 192.35 16.8 198.39 15.78 201.3 17.28 202.4 22.83 205.55 31.16 206.48 32.77 204.47 34.93 203.25 37.4 202.33 39.58 201.87 41.16 201.23 43.16 199.78 49.94 192.72 54.38 189.64 58.84 188.07 86.19 189.38 94.61 181.19 108.74 183.16 115.83 185.42 169.84 211.75 180.74 211.06 186.4 212.46 190.6 215.91 192.67 219.04 193.74 220.13 196.88 220.95 214.04 228.25 218.93 243.49 212.22 256.35 203 263.91 196.74 267.84 192.87 270.85 189.91 274 177.72 291.71 176.98 294.19 178.74 297.98 180.11 304.41 176.72 314.97 181.61 314.2 187.53 318.8 191.56 325.22 201.28 334.28 215.56 336.95 223.22 342.87 225.78 347.99 230.42 361.15 230.62 366.41 229.41 370.92 228.08 374.08 227.65 377.95 227.63 382.43 228.12 389.17 226.89 394.34 224.62 397.6 215.19 405.7 213.62 407.39 212.44 409.14 209.99 411.58 208.29 412.53 207.72 412.98 206.93 414.09 202.37 422.6 204.74 425.65 205.16 429.08 205.2 432.13 204.93 434.18 205.15 436.06 205.83 437.63 207.43 439.01 210.3 439.38 217.32 437.75 221.34 435.16 224.5 431.8 227.04 427.66 231.51 422.58 240.54 418.63 258.09 420.26 255.74 427.07 258.11 437.17 271.69 457.77 275.12 468.21 280.23 467.47 285.96 465.31 288.56 463.68 287.18 461.96 286.85 453.89 296.73 451.83 307.69 451.41 337.54 456.8 344.37 455.44 353.19 452.62 353.5 444.24 355.61 442.72 365.91 436.36 365.97 435.2 363.53 427.14 363.38 421.27 363.61 420.36 366.35 411.26 369.99 406.77 373.53 404.05 376.67 399.97 381.03 389.55 381.01 383.05 378.7 375.01 376.39 362.03 361.07 322.45 357.89 309.45 357.63 287.83 356.42 277.16 351.34 260.67 333.24 221.69 324.64 209.98 313.14 197.67 254.88 155.02 249 154.02 216.41 154.88 208.24 153.7 202.39 146.95 201.97 146.1 197.64 135.05 196.74 129.26 197.53 120.46 196.83 117.29 195.11 114.85 187.24 107.95 183.89 101.97 183.89 100.34 184.87 94.29 189.51 87.21 189.58 84.49 188.2 81.59 182.22 75.81 178.99 71.31 178.67 70.67 165.28 38.32 158.23 29.28 134.25 15.9 124.48 5.12 115.68 0 108.67 5.08 90.81 28.93 76.15 33.16 53.6 32.4 43.48 39.45 38.84 43.92 19.63 55.31" fill="#0d172e"/></g></svg>