<?xml version="1.0" encoding="UTF-8"?><svg id="Layer_2" xmlns="http://www.w3.org/2000/svg" viewBox="0 0 377.43 293.72"><g id="Layer_1-2"><polygon points="35.47 88.44 25.12 83.94 8.54 73.66 3.92 71.75 2.95 71.9 1.07 74.38 0 79.56 1.16 84.61 30.14 108.04 31.33 114.26 54.65 124.11 60.57 123.82 61.54 126.71 65.94 141.06 65.25 157.03 58.1 169.92 51.91 167.72 51.85 172.11 54.2 193.35 55.06 215.43 46.35 230.59 57.45 240.85 61.45 236.73 67.49 248.63 72.19 270.4 62.25 275.11 54.76 273.59 54.68 273.43 54.66 273.43 53.75 271.68 53.16 270.36 48.3 281.53 53.15 284.23 53.23 284.08 55.54 282.06 58.68 280.73 65.87 279.87 77.27 275.29 82.79 275.98 91.89 281.73 94.67 284.25 98.99 289.86 101.04 291.88 103.04 293.23 107.33 293.72 114 292.98 127.7 288.61 132.5 285.08 134.62 282.42 135.14 280.45 137.4 276.19 142.42 272.52 148.04 272.88 152.58 275.99 157.09 281.64 161.12 285.44 163.21 287.02 167.53 287.34 165.08 276.91 165.47 272.47 164.42 269.16 162.6 266.33 155.02 257.52 153.25 252.55 154.95 247.39 156.05 246.1 157.52 239.9 156.29 212.77 159.46 195.78 166.79 197.8 171.53 200.2 176.69 203.88 185.38 206.1 191 205.37 198.77 202.89 208.5 197.81 213.59 201.15 216.78 207.39 217.9 208.55 220.03 209.95 227.41 212.31 227.5 210.98 228.45 207.2 231.31 204.62 238.63 199.34 242.92 198.35 249.06 198.4 265.16 201.38 267.27 200.75 268.95 199.28 270.07 197.23 272.33 188.78 275.43 184.7 279.83 181.55 325.36 162.93 327.59 159.5 327.79 157.1 327.51 149.57 326.23 146.96 305.2 128.74 303.21 122.77 306.76 117.66 311.91 116 317.36 115.48 322.62 114.39 326.68 112.63 330.26 107.89 336.85 100.9 341.8 97.28 348.59 85.92 348.49 79.8 347.5 78.53 348.44 76.79 348.21 62.9 352.76 68.75 355.48 63.69 357.66 60.73 359.82 59.06 361.1 58.33 361.7 57.71 362.77 56.1 365.26 53.41 374.18 45.75 374.58 45.14 374.91 43.59 374.51 37.94 374.56 32.37 375.27 26.54 376.81 22.91 377.43 20.6 377.33 18.23 373.48 7.43 372.11 4.74 368.21 1.84 357.75 0 339.47 17.18 308.53 32.75 303.64 36.06 300.75 39.24 296.7 52.12 291.3 59.98 286.31 64.25 278.91 68.67 268.93 78.6 266.02 82.68 259.83 93.98 255.49 97.18 250.28 98.57 229.97 97.77 224 95.53 220.61 92.42 217.5 87.6 216.74 83.05 218.1 78.12 222.51 73.9 222.5 73.76 221.98 72.44 213.01 61.03 210.62 57.24 206.69 46.81 205.25 39.49 204.86 38.21 204.32 37.69 203.99 37.66 200.43 38.66 196.11 41.28 191.89 46.23 186.95 50.69 183.72 54.72 179.6 57.88 174.44 59.47 168.56 59.1 159.81 55.9 155.97 52.96 154.37 52.2 153.7 52.23 144.12 56.94 136.05 57.33 138.66 63.11 139.6 67.54 138.34 72.04 136.07 75.21 131.95 79.18 126.95 82.87 120.26 85.53 111.2 81.74 102.36 74.41 99.91 72.94 97.57 72.67 80.26 75.29 74.25 74.84 69.02 71.94 65.74 69.43 64.06 64.8 64.85 59.62 65.72 58.14 65.58 58.14 61.07 57.11 57.64 55.24 55.14 53.31 49.54 54.15 51.63 60.3 53.5 76.49 45.37 85.31 35.47 88.44" fill="#0d172e"/></g></svg>