<?xml version="1.0" encoding="UTF-8"?><svg id="Layer_2" xmlns="http://www.w3.org/2000/svg" xmlns:xlink="http://www.w3.org/1999/xlink" viewBox="0 0 402.62 345.95"><defs><clipPath id="clippath"><polygon points="121.07 190.88 198.37 233.68 300.51 174.9 312.89 200.32 151.68 293.1 92.71 262.98 121.07 190.88" fill="none"/></clipPath><clipPath id="clippath-1"><polygon points="113.47 186.67 198.37 233.68 316.07 165.95 317.9 64.1 239.55 51.36 116.92 136.88 113.47 186.67" fill="none"/></clipPath></defs><g id="_Ñëîé_1"><g><g><path d="M388.16,189.58l-111.73-64.7c-6.07-3.52-16.68-3.09-23.7,.95L18.25,260.78c-7.02,4.04-7.79,10.16-1.72,13.68l111.73,64.7c6.07,3.52,16.68,3.09,23.7-.95l234.49-134.95c7.02-4.04,7.79-10.16,1.72-13.68Z" fill="#173d7a" opacity=".5"/><path d="M125,315.19L8.73,247.86c-3.82-2.21-5.6-5.2-5.47-8.3h-.03s.05-16.86,.05-16.86l6.47,7.57c.42-.28,.84-.55,1.3-.82L248.91,92.56c9.44-5.43,23.72-6.01,31.88-1.28l114.64,66.39c2.32-2.54,7.19-7.91,7.19-7.91l-.06,16.5h0c.17,3.72-2.48,7.68-7.81,10.75l-237.87,136.89c-9.44,5.43-23.72,6.01-31.88,1.28Z" fill="#396caa"/><path d="M62.13,273.89l6.7,3.87c.89,.51,1.61-.03,1.61-1.22h0c0-1.19-.72-2.56-1.61-3.08l-6.7-3.87c-.89-.51-1.61,.03-1.61,1.22h0c0,1.19,.72,2.56,1.61,3.08Z" fill="#173d7a"/><path d="M248.91,92.56c9.44-5.43,23.72-6.01,31.88-1.28l114.64,66.39c2.32-2.54,7.19-7.91,7.19-7.91l-.06,16.5h0c.17,3.72-2.48,7.68-7.81,10.75l-237.87,136.89c-4.93,2.84-11.17,4.33-17.17,4.46l.23-163.11,108.96-62.71Z" fill="#5793ce"/><path d="M397.12,141.66l-116.28-67.33c-8.17-4.73-22.44-4.16-31.88,1.28L11.09,212.49c-9.44,5.43-10.48,13.67-2.31,18.4l116.28,67.33c8.17,4.73,22.44,4.16,31.88-1.28l237.87-136.89c9.44-5.43,10.48-13.67,2.31-18.4Z" fill="#d4ecff"/><path d="M124.97,300.03L8.69,232.7c-4.21-2.44-5.96-5.81-5.38-9.25,.21,2.79,2,5.44,5.47,7.45l116.28,67.33c8.17,4.73,22.44,4.16,31.88-1.28l237.87-136.89c4.57-2.63,7.16-5.92,7.7-9.15,.28,3.78-2.35,7.83-7.78,10.95l-237.87,136.89c-9.44,5.43-23.72,6.01-31.88,1.28Z" fill="#fff"/><path d="M388.16,144.31l-111.73-64.7c-6.07-3.52-16.68-3.09-23.7,.95L18.25,215.51c-7.02,4.04-7.79,10.16-1.72,13.68l111.73,64.7c6.07,3.52,16.68,3.09,23.7-.95l234.49-134.95c7.02-4.04,7.79-10.16,1.72-13.68Z" fill="#173d7a"/></g><g><polygon points="156.4 260.28 77.56 214.76 82.59 211.86 161.43 257.38 156.4 260.28" fill="#d4ecff"/><polygon points="101.54 247.01 61.62 223.96 66.65 221.06 106.58 244.11 101.54 247.01" fill="#d4ecff"/><polygon points="120.92 258.2 107.97 250.72 113 247.82 125.95 255.29 120.92 258.2" fill="#f8d775"/><polygon points="140.46 269.48 127.52 262.01 132.55 259.1 145.5 266.58 140.46 269.48" fill="#fff"/><polygon points="101.99 238.07 69.59 219.36 74.62 216.46 107.02 235.16 101.99 238.07" fill="#fff"/><polygon points="141.54 260.9 109.14 242.2 114.17 239.29 146.57 258 141.54 260.9" fill="#d4ecff"/><g><path d="M117.55,220.92c-1.62,.94-4.25,.94-5.87,0-1.62-.94-1.62-2.45,0-3.39,1.62-.94,4.25-.94,5.87,0,1.62,.94,1.62,2.45,0,3.39Z" fill="#f8d775"/><path d="M126.33,225.98c-1.62,.94-4.25,.94-5.87,0-1.62-.94-1.62-2.45,0-3.39,1.62-.94,4.25-.94,5.87,0,1.62,.94,1.62,2.45,0,3.39Z" fill="#fff"/><path d="M135.1,231.05c-1.62,.94-4.25,.94-5.87,0-1.62-.94-1.62-2.45,0-3.39,1.62-.94,4.25-.94,5.87,0,1.62,.94,1.62,2.45,0,3.39Z" fill="#d4ecff"/><path d="M143.87,236.11c-1.62,.94-4.25,.94-5.87,0-1.62-.94-1.62-2.45,0-3.39,1.62-.94,4.25-.94,5.87,0,1.62,.94,1.62,2.45,0,3.39Z" fill="#f8d775"/><path d="M152.64,241.18c-1.62,.94-4.25,.94-5.87,0-1.62-.94-1.62-2.45,0-3.39,1.62-.94,4.25-.94,5.87,0,1.62,.94,1.62,2.45,0,3.39Z" fill="#fff"/></g></g><g><polygon points="328.98 144.81 315.7 137.15 320.86 134.17 334.14 141.83 328.98 144.81" fill="#f8d775"/><polygon points="347.46 155.48 334.19 147.82 339.35 144.84 352.62 152.5 347.46 155.48" fill="#fff"/><polygon points="269.68 110.26 256.41 102.59 261.57 99.61 274.84 107.28 269.68 110.26" fill="#fff"/><polygon points="326.02 152.53 307.53 141.86 312.69 138.88 331.18 149.55 326.02 152.53" fill="#fff"/><polygon points="339.29 160.2 331.18 155.51 336.34 152.54 344.45 157.22 339.29 160.2" fill="#d4ecff"/></g></g><g><path d="M233.18,333.67l46.27-26.71c3.65-2.11,9.58-2.23,14.38-.52l12.73-7.45c-11.94-8.9-13.03-21.09-3.25-30.58,1.91,2.7,4.75,5.24,8.55,7.44,15.32,8.85,40.17,8.85,55.49,0,5.98-3.45,9.59-7.75,10.9-12.22,17.47,10.68,17.17,27.52-.94,37.97-17.89,10.33-46.54,10.6-65.07,.88l-12.84,7.52c2.17,2.61,1.69,5.62-1.63,7.53l-46.27,26.71c-4.38,2.53-12.03,2.21-17.08-.71-5.06-2.92-5.6-7.33-1.23-9.86Z" fill="#173d7a" opacity=".5"/><g><path d="M367.35,249.73c-15.32-8.85-40.17-8.85-55.49,0-6.35,3.67-10.06,8.28-11.15,13.05,.96,4.21,3.96,8.29,9.02,11.72,1.26-1.03,2.68-2.02,4.28-2.94,15.32-8.85,40.16-8.85,55.49,0,.76,.44,1.46,.89,2.14,1.35,3.76-3.06,6.05-6.55,6.86-10.12-1.08-4.77-4.8-9.39-11.15-13.06Z" fill="#d4ecff" opacity=".5"/><path d="M299.78,269.85l5.99-7.8,18.18-8.45,15.66-1.39,18.34,2.25,12.72,6.58,8.13,5.19,1.46-8.45-2.74-9.73s-6.95-4.6-7.38-5.02c-.43-.43-16.25-6.09-16.25-6.09l-15.82-1.07-12.72,1.6-12.94,3.85-8.55,5.99-6.42,8.13-.72,10.16,3.07,4.28Z" fill="#ccc"/><polygon points="384.65 259.82 384.65 276.26 380.25 269.13 384.65 259.82" fill="#ccc"/><path d="M311.86,260.68c15.32-8.85,40.17-8.85,55.49,0,4.82,2.78,8.12,6.11,9.91,9.64,1.35-1.21,3.09-2.16,3.81-3.78-2.2-2.99-5.39-5.79-9.61-8.22-17.59-10.16-46.11-10.16-63.7,0-3.85,2.22-6.86,4.75-9.02,7.44,.71,1.66,1.78,3.26,3.21,4.58,1.79-3.53,5.09-6.86,9.91-9.65Z" fill="#ccc"/><path d="M367.35,249.73c-15.32-8.85-40.17-8.85-55.49,0-6.35,3.67-10.06,8.28-11.15,13.05,1.08,4.77,4.8,9.39,11.15,13.06,15.32,8.85,40.17,8.85,55.49,0,6.35-3.67,10.06-8.28,11.15-13.05-1.08-4.77-4.8-9.39-11.15-13.06Z" fill="#d4ecff" opacity=".5"/><path d="M381.06,266.53c-.31,.69-.8,1.26-1.37,1.78v-.17s-4.08,2.42-4.08,2.42l-4.99,4.63-6.91,3.06-9.55,3.42-8.48,2-11.69,.5-7.56-.78-14.97-3.92-9.75-8.62c.08-.17,.14-.35,.23-.52-1.43-1.32-2.51-2.92-3.21-4.58-.26,.33-.51,.66-.75,.99l-3.42-7.12v17.08h0c0,6.65,4.38,13.31,13.19,18.39,17.59,10.16,46.11,10.16,63.7,0,13.37-7.72,16.57-19.08,9.61-28.55Z" fill="#ccc"/><path d="M305.23,273.95l-3.52-3.11c.08-.17,.14-.35,.23-.52-1.43-1.32-2.51-2.92-3.21-4.58-.26,.33-.51,.66-.75,.99l-3.42-7.12v17.08h0c0,5.97,3.55,11.96,10.67,16.8v-19.54Z" fill="#ccc"/><path d="M371.45,241.43c-17.59-10.16-46.11-10.16-63.7,0-17.59,10.16-17.59,26.62,0,36.78,17.59,10.16,46.11,10.16,63.7,0,17.59-10.16,17.59-26.62,0-36.78Zm-4.11,34.41c-15.32,8.85-40.17,8.85-55.49,0-15.32-8.85-15.32-23.19,0-32.04,15.32-8.85,40.17-8.85,55.49,0,15.32,8.85,15.32,23.19,0,32.04Z" fill="#ccc"/><g><g><polygon points="278.29 296.85 303.25 282.32 306.57 287.7 281.49 302.3 278.29 296.85" fill="#d4ecff"/><path d="M282.13,300.87c0,1.43-1,2.01-2.24,1.29s-2.24-2.45-2.24-3.88,1-2.01,2.24-1.29c1.24,.71,2.24,2.45,2.24,3.88Z" fill="#983be9"/><path d="M282.13,300.87c0,1.43-1,2.01-2.24,1.29s-2.24-2.45-2.24-3.88,1-2.01,2.24-1.29c1.24,.71,2.24,2.45,2.24,3.88Z" fill="#983be9"/><path d="M307.1,286.33c0,1.43-1,2.01-2.24,1.29-1.24-.71-2.24-2.45-2.24-3.88s1-2.01,2.24-1.29c1.24,.71,2.24,2.45,2.24,3.88Z" fill="#d4ecff"/></g><path d="M294.41,301.92c0-6.14-4.31-13.61-9.63-16.68-2.72-1.57-5.18-1.68-6.93-.59h0s-52.78,30.67-52.78,30.67l13.79,23.48,52.23-30.41c.36-.15,.69-.35,1-.58l.04-.03h0c1.42-1.12,2.28-3.13,2.28-5.86Z" fill="#5793ce"/><path d="M228.89,321.82l59.08-34.11c-1-.98-2.07-1.83-3.18-2.47-2.72-1.57-5.18-1.68-6.93-.59h0s-52.78,30.67-52.78,30.67l3.82,6.5Z" fill="#d4ecff"/><g><ellipse cx="231.96" cy="327.06" rx="7.86" ry="13.62" transform="translate(-132.46 159.81) rotate(-30)" fill="#d4ecff"/><path d="M233.77,329.75c0,3.46-2.81,6.27-6.27,6.27s-6.27-2.81-6.27-6.27,2.81-6.27,6.27-6.27,6.27,2.81,6.27,6.27Z" fill="#5793ce"/><path d="M226.35,327.45c0,1.02-.83,1.85-1.85,1.85s-1.85-.83-1.85-1.85,.83-1.85,1.85-1.85,1.85,.83,1.85,1.85Z" fill="#fff"/></g><path d="M232.67,315.53c-2.85-1.64-5.4-1.68-7.16-.43,1.71-.8,3.96-.59,6.45,.85,5.32,3.07,9.63,10.54,9.63,16.68,0,2.85-.94,4.91-2.47,5.99,1.95-.91,3.18-3.13,3.18-6.4,0-6.14-4.31-13.61-9.63-16.68Z" fill="#fff"/></g><g><path d="M367.35,243.8c-15.32-8.85-40.17-8.85-55.49,0-7.98,4.61-11.79,10.7-11.46,16.74,.3-5.55,4.12-11.06,11.46-15.3,15.32-8.85,40.17-8.85,55.49,0,7.34,4.24,11.16,9.74,11.46,15.3,.33-6.04-3.48-12.13-11.46-16.74Z" fill="#fff"/><path d="M371.45,278.21c-17.59,10.16-46.11,10.16-63.7,0-8.48-4.89-12.86-11.26-13.16-17.67-.33,6.89,4.05,13.85,13.16,19.11,17.59,10.16,46.11,10.16,63.7,0,9.11-5.26,13.49-12.22,13.16-19.11-.31,6.41-4.69,12.77-13.16,17.67Z" fill="#fff"/></g></g></g><g opacity=".3"><g clip-path="url(#clippath)"><g><g><g><path d="M191.26,208.89c-4.23,2.44-4.23,6.42,0,8.86l71.9,41.51c1.16,.67,3.05,.67,4.21,0s1.16-1.76,0-2.43l-71.9-41.51c-1.91-1.1-1.91-2.89,0-3.99l6.97-4.02c-.77-1.16-1.48-2.38-2.16-3.61l-9.01,5.2Z" fill="#d4ecff"/><path d="M293.08,241.98l-71.9-41.51c-4.23-2.44-11.11-2.44-15.34,0l-5.58,3.22c.69,1.24,1.39,2.45,2.16,3.61l7.62-4.4c1.91-1.1,5.01-1.1,6.92,0l71.9,41.51c1.16,.67,3.05,.67,4.21,0,1.16-.67,1.16-1.76,0-2.43Z" fill="#5793ce"/></g><polygon points="293.95 243.28 293.95 142.19 218.61 100.18 208.08 99.49 197.89 106.09 191.63 111.53 265.04 227.94 289.01 242.06 293.95 243.28" fill="#5793ce"/><polygon points="266.08 256.05 288.6 243.05 288.6 145.34 265.39 156.13 266.08 256.05" fill="#79b1e0"/><polygon points="188.09 112.31 188.09 213.25 267.18 258.49 268.24 258.06 268.24 156.98 188.09 112.31" fill="#d4ecff"/><path d="M232.57,113.15l-15.72-9.03c-1.92-.89-4.73-.83-6.51,.19l-14.59,8.42c-1.13,.65-1.59,1.55-1.38,2.4l39.72,23.74,31.91,19.58,22.6-13.11-56.03-32.19Z" fill="#fff"/><path d="M265.39,155.4v104.36c.72-.02,1.43-.18,1.97-.5,.57-.33,.86-.76,.87-1.19h0v-.02h0v-101.06l-2.85-1.59Z" fill="#5793ce"/><polygon points="293.95 143.45 293.95 142.19 293.55 142.19 293.43 143.04 293.95 143.45" fill="#fff"/><polygon points="268.23 158.29 268.23 157 267.85 157.55 268.23 158.29" fill="#fff"/><path d="M263.15,158.18l-71.9-41.51c-4.23-2.44-4.23-6.42,0-8.86l14.59-8.42c4.23-2.44,11.11-2.44,15.34,0l71.9,41.51c1.16,.67,1.16,1.76,0,2.43s-3.05,.67-4.21,0l-71.9-41.51c-1.91-1.1-5.01-1.1-6.92,0l-14.59,8.42c-1.91,1.1-1.91,2.89,0,3.99l71.9,41.51c1.16,.67,1.16,1.76,0,2.43s-3.05,.67-4.21,0Z" fill="#d4ecff"/><polygon points="244.42 206.03 207.06 184.46 207.06 147.01 244.42 168.58 244.42 206.03" fill="#fff"/><g><path d="M293.08,143.33c-1.16,.67-3.05,.67-4.21,0l-71.9-41.51c-1.91-1.1-5.01-1.1-6.92,0l-14.59,8.42c-1.25,.72-1.67,1.74-1.29,2.66,.2-.49,.63-.95,1.29-1.33l14.59-8.42c1.91-1.1,5.01-1.1,6.92,0l71.9,41.51c1.16,.67,3.05,.67,4.21,0,.88-.51,1.09-1.26,.64-1.88-.15,.2-.36,.39-.64,.55Z" fill="#fff"/><path d="M267.36,158.18c-1.16,.67-3.05,.67-4.21,0l-71.9-41.51c-1.82-1.05-2.85-2.39-3.11-3.76-.33,1.82,.7,3.7,3.11,5.09l71.9,41.51c1.16,.67,3.05,.67,4.21,0,.88-.51,1.09-1.26,.64-1.88-.15,.2-.36,.39-.64,.55Z" fill="#fff"/></g></g><g><g><path d="M158.2,228.46c-4.23,2.44-4.23,6.42,0,8.86l71.9,41.51c1.16,.67,3.05,.67,4.21,0s1.16-1.76,0-2.43l-71.9-41.51c-1.91-1.1-1.91-2.89,0-3.99l6.97-4.02c-.77-1.16-1.48-2.38-2.16-3.61l-9.01,5.2Z" fill="#f8d775"/><path d="M260.03,261.55l-71.9-41.51c-4.23-2.44-11.11-2.44-15.34,0l-5.58,3.22c.69,1.24,1.39,2.45,2.16,3.61l7.62-4.4c1.91-1.1,5.01-1.1,6.92,0l71.9,41.51c1.16,.67,3.05,.67,4.21,0,1.16-.67,1.16-1.76,0-2.43Z" fill="#f8d775"/></g><polygon points="260.89 262.85 260.9 161.75 185.56 119.75 175.02 119.06 164.83 125.66 158.58 131.1 231.99 247.51 255.96 261.63 260.89 262.85" fill="#f8d775"/><polygon points="233.03 275.62 255.55 262.62 255.55 164.91 232.34 175.7 233.03 275.62" fill="#f8d775"/><polygon points="155.03 131.88 155.03 232.81 234.13 278.06 235.18 277.63 235.18 176.55 155.03 131.88" fill="#f8d775"/><path d="M199.52,132.72l-15.72-9.03c-1.92-.89-4.73-.83-6.51,.19l-14.59,8.42c-1.13,.65-1.59,1.55-1.38,2.4l39.72,23.74,31.91,19.58,22.6-13.11-56.03-32.19Z" fill="#fff"/><path d="M232.34,174.97v104.36c.72-.02,1.43-.18,1.97-.5,.57-.33,.86-.76,.87-1.19h0v-.02h0v-101.06l-2.85-1.59Z" fill="#f8d775"/><polygon points="260.9 163.01 260.9 161.75 260.5 161.75 260.38 162.61 260.9 163.01" fill="#fff"/><polygon points="235.18 177.86 235.18 176.57 234.79 177.12 235.18 177.86" fill="#fff"/><path d="M230.1,177.75l-71.9-41.51c-4.23-2.44-4.23-6.42,0-8.86l14.59-8.42c4.23-2.44,11.11-2.44,15.34,0l71.9,41.51c1.16,.67,1.16,1.76,0,2.43s-3.05,.67-4.21,0l-71.9-41.51c-1.91-1.1-5.01-1.1-6.92,0l-14.59,8.42c-1.91,1.1-1.91,2.89,0,3.99l71.9,41.51c1.16,.67,1.16,1.76,0,2.43s-3.05,.67-4.21,0Z" fill="#ff2c9c"/><polygon points="211.36 225.6 174 204.03 174 166.58 211.36 188.15 211.36 225.6" fill="#fff"/><g><path d="M260.03,162.9c-1.16,.67-3.05,.67-4.21,0l-71.9-41.51c-1.91-1.1-5.01-1.1-6.92,0l-14.59,8.42c-1.25,.72-1.67,1.74-1.29,2.66,.2-.49,.63-.95,1.29-1.33l14.59-8.42c1.91-1.1,5.01-1.1,6.92,0l71.9,41.51c1.16,.67,3.05,.67,4.21,0,.88-.51,1.09-1.26,.64-1.88-.15,.2-.36,.39-.64,.55Z" fill="#fff"/><path d="M234.31,177.75c-1.16,.67-3.05,.67-4.21,0l-71.9-41.51c-1.82-1.05-2.85-2.39-3.11-3.76-.33,1.82,.7,3.7,3.11,5.09l71.9,41.51c1.16,.67,3.05,.67,4.21,0,.88-.51,1.09-1.26,.64-1.88-.15,.2-.36,.39-.64,.55Z" fill="#fff"/></g></g><g><g><path d="M124.24,261.24c-4.23,2.44-4.23,6.42,0,8.86l71.9,41.51c1.16,.67,3.05,.67,4.21,0s1.16-1.76,0-2.43l-71.9-41.51c-1.91-1.1-1.91-2.89,0-3.99l6.97-4.02c-.77-1.16-1.48-2.38-2.16-3.61l-9.01,5.2Z" fill="#d4ecff"/><path d="M226.07,294.32l-71.9-41.51c-4.23-2.44-11.11-2.44-15.34,0l-5.58,3.22c.69,1.24,1.39,2.45,2.16,3.61l7.62-4.4c1.91-1.1,5.01-1.1,6.92,0l71.9,41.51c1.16,.67,3.05,.67,4.21,0,1.16-.67,1.16-1.76,0-2.43Z" fill="#5793ce"/></g><polygon points="226.93 295.63 226.94 194.53 151.59 152.53 141.06 151.84 130.87 158.43 124.62 163.88 198.02 280.28 221.99 294.41 226.93 295.63" fill="#5793ce"/><polygon points="199.07 308.39 221.59 295.39 221.59 197.69 198.37 208.48 199.07 308.39" fill="#79b1e0"/><polygon points="121.07 164.66 121.07 265.59 200.16 310.83 201.22 310.41 201.22 209.33 121.07 164.66" fill="#d4ecff"/><path d="M165.55,165.49l-15.72-9.03c-1.92-.89-4.73-.83-6.51,.19l-14.59,8.42c-1.13,.65-1.59,1.55-1.38,2.4l39.72,23.74,31.9,19.58,22.6-13.11-56.03-32.19Z" fill="#fff"/><path d="M198.37,207.74v104.36c.72-.02,1.43-.18,1.97-.5,.57-.33,.86-.76,.87-1.19h0v-.02h0v-101.06l-2.85-1.59Z" fill="#5793ce"/><polygon points="226.94 195.79 226.94 194.53 226.54 194.53 226.41 195.39 226.94 195.79" fill="#fff"/><polygon points="201.22 210.64 201.22 209.35 200.83 209.9 201.22 210.64" fill="#fff"/><path d="M196.13,210.53l-71.9-41.51c-4.23-2.44-4.23-6.42,0-8.86l14.59-8.42c4.23-2.44,11.11-2.44,15.34,0l71.9,41.51c1.16,.67,1.16,1.76,0,2.43s-3.05,.67-4.21,0l-71.9-41.51c-1.91-1.1-5.01-1.1-6.92,0l-14.59,8.42c-1.91,1.1-1.91,2.89,0,3.99l71.9,41.51c1.16,.67,1.16,1.76,0,2.43s-3.05,.67-4.21,0Z" fill="#d4ecff"/><polygon points="177.4 258.38 140.04 236.81 140.04 199.36 177.4 220.93 177.4 258.38" fill="#fff"/><g><path d="M226.07,195.68c-1.16,.67-3.05,.67-4.21,0l-71.9-41.51c-1.91-1.1-5.01-1.1-6.92,0l-14.59,8.42c-1.25,.72-1.67,1.74-1.29,2.66,.2-.49,.63-.95,1.29-1.33l14.59-8.42c1.91-1.1,5.01-1.1,6.92,0l71.9,41.51c1.16,.67,3.05,.67,4.21,0,.88-.51,1.09-1.26,.64-1.88-.15,.2-.36,.39-.64,.55Z" fill="#fff"/><path d="M200.35,210.53c-1.16,.67-3.05,.67-4.21,0l-71.9-41.51c-1.82-1.05-2.85-2.39-3.11-3.76-.33,1.82,.7,3.7,3.11,5.09l71.9,41.51c1.16,.67,3.05,.67,4.21,0,.88-.51,1.09-1.26,.64-1.88-.15,.2-.36,.39-.64,.55Z" fill="#fff"/></g></g></g></g></g><g clip-path="url(#clippath-1)"><g><g><g><polygon points="257.08 167.58 251.08 187.27 235.72 197.84 247.37 202.59 243.88 222.13 257.08 205.13 270.29 206.88 266.8 191.38 278.45 173.17 263.09 180.34 257.08 167.58" fill="#e8a200"/><path d="M285.62,177.28l-7.17-4.12-11.07,5.17s.04,7.45,0,7.62c-.04,.18,4.56,.4,4.87,.4s13.37-9.07,13.37-9.07Z" fill="#d3008d"/><path d="M243.88,222.13l7.17,4.12,3.49-19.54s-3.48-3.67-3.46-3.67-3.91,.66-3.91,.66l-3.29,18.43Z" fill="#d3008d"/><polygon points="264.25 171.69 258.25 191.38 242.89 201.96 254.54 206.71 251.05 226.25 264.25 209.25 277.46 211 273.97 195.49 285.62 177.28 270.26 184.45 264.25 171.69" fill="#ff2c9c"/><path d="M252.45,224.45l3.29-18.4-10.63-4.33,14.05-9.67,5.3-17.41,5.28,11.22,14.81-6.91,1.07-1.67-15.37,7.17-6-12.76-6,19.69-15.37,10.57,11.66,4.75-3.49,19.54,1.4-1.8Z" fill="#fff"/><polygon points="264.25 171.69 257.08 167.58 251.08 187.27 258.25 191.38 264.25 171.69" fill="#d3008d"/><polygon points="235.72 197.84 242.89 201.96 258.25 191.38 251.08 187.27 235.72 197.84" fill="#d3008d"/></g><polygon points="257.89 191.88 258.99 191.25 251.24 186.74 251.08 187.27 250.57 187.62 257.89 191.88" fill="#fff"/></g><g><g><polygon points="208.11 195.61 202.11 215.3 186.74 225.87 198.4 230.63 194.9 250.17 208.11 233.17 221.32 234.92 217.82 219.41 229.48 201.2 214.11 208.37 208.11 195.61" fill="#e8a200"/><path d="M236.65,205.32l-7.17-4.12-11.07,5.17s.04,7.45,0,7.62c-.04,.18,4.56,.4,4.87,.4s13.37-9.07,13.37-9.07Z" fill="#d3008d"/><path d="M194.9,250.17l7.17,4.12,3.49-19.54s-3.48-3.67-3.46-3.67-3.91,.66-3.91,.66l-3.29,18.43Z" fill="#d3008d"/><polygon points="215.28 199.73 209.28 219.42 193.91 229.99 205.57 234.74 202.07 254.28 215.28 237.28 228.49 239.03 224.99 223.53 236.65 205.32 221.28 212.49 215.28 199.73" fill="#ff2c9c"/><path d="M203.48,252.48l3.29-18.4-10.63-4.33,14.05-9.67,5.3-17.41,5.28,11.22,14.81-6.91,1.07-1.67-15.37,7.17-6-12.76-6,19.69-15.37,10.57,11.66,4.75-3.49,19.54,1.4-1.8Z" fill="#fff"/><polygon points="215.28 199.73 208.11 195.61 202.11 215.3 209.28 219.42 215.28 199.73" fill="#d3008d"/><polygon points="186.74 225.87 193.91 229.99 209.28 219.42 202.11 215.3 186.74 225.87" fill="#d3008d"/></g><polygon points="208.92 219.91 210.01 219.28 202.27 214.77 202.11 215.3 201.6 215.65 208.92 219.91" fill="#fff"/></g><g><g><polygon points="159.14 223.65 153.13 243.33 137.77 253.91 149.42 258.66 145.93 278.2 159.14 261.2 172.34 262.95 168.85 247.44 180.5 229.23 165.14 236.4 159.14 223.65" fill="#e8a200"/><path d="M187.67,233.35l-7.17-4.12-11.07,5.17s.04,7.45,0,7.62c-.04,.18,4.56,.4,4.87,.4s13.37-9.07,13.37-9.07Z" fill="#d3008d"/><path d="M145.93,278.2l7.17,4.12,3.49-19.54s-3.48-3.67-3.46-3.67-3.91,.66-3.91,.66l-3.29,18.43Z" fill="#d3008d"/><polygon points="166.31 227.76 160.3 247.45 144.94 258.02 156.59 262.78 153.1 282.32 166.31 265.32 179.51 267.07 176.02 251.56 187.67 233.35 172.31 240.52 166.31 227.76" fill="#ff2c9c"/><path d="M154.5,280.51l3.29-18.4-10.63-4.33,14.05-9.67,5.3-17.41,5.28,11.22,14.81-6.91,1.07-1.67-15.37,7.17-6-12.76-6,19.69-15.37,10.57,11.66,4.75-3.49,19.54,1.4-1.8Z" fill="#fff"/><polygon points="166.31 227.76 159.14 223.65 153.13 243.33 160.3 247.45 166.31 227.76" fill="#d3008d"/><polygon points="137.77 253.91 144.94 258.02 160.3 247.45 153.13 243.33 137.77 253.91" fill="#d3008d"/></g><polygon points="159.95 247.94 161.04 247.31 153.29 242.81 153.13 243.33 152.62 243.68 159.95 247.94" fill="#fff"/></g><g><g><polygon points="223.01 121.09 217.01 140.78 201.64 151.35 213.3 156.1 209.8 175.65 223.01 158.65 236.22 160.4 232.72 144.89 244.38 126.68 229.01 133.85 223.01 121.09" fill="#e8a200"/><path d="M251.55,130.8l-7.17-4.12-11.07,5.17s.04,7.45,0,7.62c-.04,.18,4.56,.4,4.87,.4s13.37-9.07,13.37-9.07Z" fill="#d3008d"/><path d="M209.8,175.65l7.17,4.12,3.49-19.54s-3.48-3.67-3.46-3.67-3.91,.66-3.91,.66l-3.29,18.43Z" fill="#d3008d"/><polygon points="230.18 125.21 224.18 144.9 208.81 155.47 220.47 160.22 216.97 179.76 230.18 162.76 243.39 164.51 239.89 149.01 251.55 130.8 236.18 137.96 230.18 125.21" fill="#ff2c9c"/><path d="M218.37,177.96l3.29-18.4-10.63-4.33,14.05-9.67,5.3-17.41,5.28,11.22,14.81-6.91,1.07-1.67-15.37,7.17-6-12.76-6,19.69-15.37,10.57,11.66,4.75-3.49,19.54,1.4-1.8Z" fill="#fff"/><polygon points="230.18 125.21 223.01 121.09 217.01 140.78 224.18 144.9 230.18 125.21" fill="#d3008d"/><polygon points="201.64 151.35 208.81 155.47 224.18 144.9 217.01 140.78 201.64 151.35" fill="#d3008d"/></g><polygon points="223.82 145.39 224.91 144.76 217.17 140.25 217.01 140.78 216.5 141.13 223.82 145.39" fill="#fff"/></g><g><g><polygon points="174.04 149.12 168.03 168.81 152.67 179.39 164.32 184.14 160.83 203.68 174.04 186.68 187.24 188.43 183.75 172.92 195.4 154.71 180.04 161.88 174.04 149.12" fill="#e8a200"/><path d="M202.57,158.83l-7.17-4.12-11.07,5.17s.04,7.45,0,7.62,4.56,.4,4.87,.4,13.37-9.07,13.37-9.07Z" fill="#d3008d"/><path d="M160.83,203.68l7.17,4.12,3.49-19.54s-3.48-3.67-3.46-3.67-3.91,.66-3.91,.66l-3.29,18.43Z" fill="#d3008d"/><polygon points="181.21 153.24 175.2 172.93 159.84 183.5 171.49 188.25 168 207.79 181.21 190.79 194.41 192.55 190.92 177.04 202.57 158.83 187.21 166 181.21 153.24" fill="#ff2c9c"/><path d="M169.4,205.99l3.29-18.4-10.63-4.33,14.05-9.67,5.3-17.41,5.28,11.22,14.81-6.91,1.07-1.67-15.37,7.17-6-12.76-6,19.69-15.37,10.57,11.66,4.75-3.49,19.54,1.4-1.8Z" fill="#fff"/><polygon points="181.21 153.24 174.04 149.12 168.03 168.81 175.2 172.93 181.21 153.24" fill="#d3008d"/><polygon points="152.67 179.39 159.84 183.5 175.2 172.93 168.03 168.81 152.67 179.39" fill="#d3008d"/></g><polygon points="174.84 173.42 175.94 172.79 168.19 168.29 168.03 168.81 167.52 169.16 174.84 173.42" fill="#fff"/></g></g><g><g><g><path d="M191.26,187.23c-4.23,2.44-4.23,6.42,0,8.86l71.9,41.51c1.16,.67,3.05,.67,4.21,0s1.16-1.76,0-2.43l-71.9-41.51c-1.91-1.1-1.91-2.89,0-3.99l6.97-4.02c-.77-1.16-1.48-2.38-2.16-3.61l-9.01,5.2Z" fill="#d4ecff"/><path d="M293.08,220.32l-71.9-41.51c-4.23-2.44-11.11-2.44-15.34,0l-5.58,3.22c.69,1.24,1.39,2.45,2.16,3.61l7.62-4.4c1.91-1.1,5.01-1.1,6.92,0l71.9,41.51c1.16,.67,3.05,.67,4.21,0,1.16-.67,1.16-1.76,0-2.43Z" fill="#5793ce"/></g><polygon points="293.95 221.62 293.95 120.53 218.61 78.53 208.08 77.83 197.89 84.43 191.63 89.87 265.04 206.28 289.01 220.41 293.95 221.62" fill="#5793ce"/><polygon points="266.08 234.39 288.6 221.39 288.6 123.68 265.39 134.48 266.08 234.39" fill="#79b1e0"/><polygon points="188.09 90.65 188.09 191.59 267.18 236.83 268.24 236.4 268.24 135.32 188.09 90.65" fill="#d4ecff"/><path d="M232.57,91.49l-15.72-9.03c-1.92-.89-4.73-.83-6.51,.19l-14.59,8.42c-1.13,.65-1.59,1.55-1.38,2.4l39.72,23.74,31.91,19.58,22.6-13.11-56.03-32.19Z" fill="#fff"/><path d="M265.39,133.74v104.36c.72-.02,1.43-.18,1.97-.5,.57-.33,.86-.76,.87-1.19h0v-.02h0v-101.06l-2.85-1.59Z" fill="#5793ce"/><polygon points="293.95 121.79 293.95 120.53 293.55 120.53 293.43 121.38 293.95 121.79" fill="#fff"/><polygon points="268.23 136.63 268.23 135.34 267.85 135.89 268.23 136.63" fill="#fff"/><path d="M263.15,136.52l-71.9-41.51c-4.23-2.44-4.23-6.42,0-8.86l14.59-8.42c4.23-2.44,11.11-2.44,15.34,0l71.9,41.51c1.16,.67,1.16,1.76,0,2.43s-3.05,.67-4.21,0l-71.9-41.51c-1.91-1.1-5.01-1.1-6.92,0l-14.59,8.42c-1.91,1.1-1.91,2.89,0,3.99l71.9,41.51c1.16,.67,1.16,1.76,0,2.43s-3.05,.67-4.21,0Z" fill="#d4ecff"/><polygon points="244.42 184.37 207.06 162.8 207.06 125.35 244.42 146.92 244.42 184.37" fill="#fff"/><g><path d="M293.08,121.67c-1.16,.67-3.05,.67-4.21,0l-71.9-41.51c-1.91-1.1-5.01-1.1-6.92,0l-14.59,8.42c-1.25,.72-1.67,1.74-1.29,2.66,.2-.49,.63-.95,1.29-1.33l14.59-8.42c1.91-1.1,5.01-1.1,6.92,0l71.9,41.51c1.16,.67,3.05,.67,4.21,0,.88-.51,1.09-1.26,.64-1.88-.15,.2-.36,.39-.64,.55Z" fill="#fff"/><path d="M267.36,136.52c-1.16,.67-3.05,.67-4.21,0l-71.9-41.51c-1.82-1.05-2.85-2.39-3.11-3.76-.33,1.82,.7,3.7,3.11,5.09l71.9,41.51c1.16,.67,3.05,.67,4.21,0,.88-.51,1.09-1.26,.64-1.88-.15,.2-.36,.39-.64,.55Z" fill="#fff"/></g></g><g><g><path d="M158.65,227.93c-4.23,2.44-4.23,6.42,0,8.86l71.9,41.51c1.16,.67,3.05,.67,4.21,0s1.16-1.76,0-2.43l-71.9-41.51c-1.91-1.1-1.91-2.89,0-3.99l6.97-4.02c-.77-1.16-1.48-2.38-2.16-3.61l-9.01,5.2Z" fill="#f8d775"/><path d="M260.48,261.02l-71.9-41.51c-4.23-2.44-11.11-2.44-15.34,0l-5.58,3.22c.69,1.24,1.39,2.45,2.16,3.61l7.62-4.4c1.91-1.1,5.01-1.1,6.92,0l71.9,41.51c1.16,.67,3.05,.67,4.21,0,1.16-.67,1.16-1.76,0-2.43Z" fill="#f8d775"/></g><polygon points="261.34 262.32 261.35 161.22 186.01 119.22 175.47 118.53 165.28 125.13 159.03 130.57 232.44 246.98 256.4 261.1 261.34 262.32" fill="#f8d775"/><polygon points="233.48 275.09 256 262.09 256 164.38 232.78 175.17 233.48 275.09" fill="#79b1e0"/><polygon points="155.48 131.35 155.48 232.28 234.57 277.53 235.63 277.1 235.63 176.02 155.48 131.35" fill="#f8d775"/><path d="M199.97,132.19l-15.72-9.03c-1.92-.89-4.73-.83-6.51,.19l-14.59,8.42c-1.13,.65-1.59,1.55-1.38,2.4l39.72,23.74,31.91,19.58,22.6-13.11-56.03-32.19Z" fill="#fff"/><path d="M232.78,174.44v104.36c.72-.02,1.43-.18,1.97-.5,.57-.33,.86-.76,.87-1.19h0v-.02h0v-101.06l-2.85-1.59Z" fill="#f8d775"/><polygon points="261.35 162.49 261.35 161.22 260.95 161.22 260.83 162.08 261.35 162.49" fill="#fff"/><polygon points="235.63 177.33 235.63 176.04 235.24 176.59 235.63 177.33" fill="#fff"/><path d="M230.55,177.22l-71.9-41.51c-4.23-2.44-4.23-6.42,0-8.86l14.59-8.42c4.23-2.44,11.11-2.44,15.34,0l71.9,41.51c1.16,.67,1.16,1.76,0,2.43s-3.05,.67-4.21,0l-71.9-41.51c-1.91-1.1-5.01-1.1-6.92,0l-14.59,8.42c-1.91,1.1-1.91,2.89,0,3.99l71.9,41.51c1.16,.67,1.16,1.76,0,2.43s-3.05,.67-4.21,0Z" fill="#f8d775"/><polygon points="211.81 225.07 174.45 203.5 174.45 166.05 211.81 187.62 211.81 225.07" fill="#fff"/><g><path d="M260.48,162.37c-1.16,.67-3.05,.67-4.21,0l-71.9-41.51c-1.91-1.1-5.01-1.1-6.92,0l-14.59,8.42c-1.25,.72-1.67,1.74-1.29,2.66,.2-.49,.63-.95,1.29-1.33l14.59-8.42c1.91-1.1,5.01-1.1,6.92,0l71.9,41.51c1.16,.67,3.05,.67,4.21,0,.88-.51,1.09-1.26,.64-1.88-.15,.2-.36,.39-.64,.55Z" fill="#fff"/><path d="M234.76,177.22c-1.16,.67-3.05,.67-4.21,0l-71.9-41.51c-1.82-1.05-2.85-2.39-3.11-3.76-.33,1.82,.7,3.7,3.11,5.09l71.9,41.51c1.16,.67,3.05,.67,4.21,0,.88-.51,1.09-1.26,.64-1.88-.15,.2-.36,.39-.64,.55Z" fill="#fff"/></g></g><g><g><path d="M124.24,259.58c-4.23,2.44-4.23,6.42,0,8.86l71.9,41.51c1.16,.67,3.05,.67,4.21,0s1.16-1.76,0-2.43l-71.9-41.51c-1.91-1.1-1.91-2.89,0-3.99l6.97-4.02c-.77-1.16-1.48-2.38-2.16-3.61l-9.01,5.2Z" fill="#d4ecff"/><path d="M226.07,292.67l-71.9-41.51c-4.23-2.44-11.11-2.44-15.34,0l-5.58,3.22c.69,1.24,1.39,2.45,2.16,3.61l7.62-4.4c1.91-1.1,5.01-1.1,6.92,0l71.9,41.51c1.16,.67,3.05,.67,4.21,0,1.16-.67,1.16-1.76,0-2.43Z" fill="#5793ce"/></g><polygon points="226.93 293.97 226.94 192.88 151.59 150.88 141.06 150.18 130.87 156.78 124.62 162.22 198.02 278.63 221.99 292.76 226.93 293.97" fill="#5793ce"/><polygon points="199.07 306.74 221.59 293.74 221.59 196.03 198.37 206.83 199.07 306.74" fill="#79b1e0"/><polygon points="121.07 163.01 121.07 263.94 200.16 309.18 201.22 308.75 201.22 207.67 121.07 163.01" fill="#d4ecff"/><path d="M165.55,163.84l-15.72-9.03c-1.92-.89-4.73-.83-6.51,.19l-14.59,8.42c-1.13,.65-1.59,1.55-1.38,2.4l39.72,23.74,31.9,19.58,22.6-13.11-56.03-32.19Z" fill="#fff"/><path d="M198.37,206.09v104.36c.72-.02,1.43-.18,1.97-.5,.57-.33,.86-.76,.87-1.19h0v-.02h0v-101.06l-2.85-1.59Z" fill="#5793ce"/><polygon points="226.94 194.14 226.94 192.88 226.54 192.88 226.41 193.73 226.94 194.14" fill="#fff"/><polygon points="201.22 208.99 201.22 207.69 200.83 208.24 201.22 208.99" fill="#fff"/><path d="M196.13,208.87l-71.9-41.51c-4.23-2.44-4.23-6.42,0-8.86l14.59-8.42c4.23-2.44,11.11-2.44,15.34,0l71.9,41.51c1.16,.67,1.16,1.76,0,2.43s-3.05,.67-4.21,0l-71.9-41.51c-1.91-1.1-5.01-1.1-6.92,0l-14.59,8.42c-1.91,1.1-1.91,2.89,0,3.99l71.9,41.51c1.16,.67,1.16,1.76,0,2.43s-3.05,.67-4.21,0Z" fill="#d4ecff"/><polygon points="177.4 256.72 140.04 235.15 140.04 197.7 177.4 219.27 177.4 256.72" fill="#fff"/><g><path d="M226.07,194.02c-1.16,.67-3.05,.67-4.21,0l-71.9-41.51c-1.91-1.1-5.01-1.1-6.92,0l-14.59,8.42c-1.25,.72-1.67,1.74-1.29,2.66,.2-.49,.63-.95,1.29-1.33l14.59-8.42c1.91-1.1,5.01-1.1,6.92,0l71.9,41.51c1.16,.67,3.05,.67,4.21,0,.88-.51,1.09-1.26,.64-1.88-.15,.2-.36,.39-.64,.55Z" fill="#fff"/><path d="M200.35,208.87c-1.16,.67-3.05,.67-4.21,0l-71.9-41.51c-1.82-1.05-2.85-2.39-3.11-3.76-.33,1.82,.7,3.7,3.11,5.09l71.9,41.51c1.16,.67,3.05,.67,4.21,0,.88-.51,1.09-1.26,.64-1.88-.15,.2-.36,.39-.64,.55Z" fill="#fff"/></g></g></g></g><g><g><polygon points="367.1 112.59 349.87 102.64 367.1 92.69 384.33 102.64 367.1 112.59" fill="#173d7a" opacity=".5"/><polygon points="384.33 90.01 367.1 99.96 367.1 80.06 384.33 70.11 384.33 90.01" fill="#fcd165"/><polygon points="367.1 80.06 349.87 70.11 367.1 60.16 384.33 70.11 367.1 80.06" fill="#ccc"/><polygon points="367.1 99.96 349.87 90.01 349.87 70.11 367.1 80.06 367.1 99.96" fill="#f8d775"/></g><polygon points="360.9 89.21 356.08 86.42 356.08 80.86 360.9 83.64 360.9 89.21" fill="#fff"/></g><g><g><polygon points="17.94 344.5 0 334.15 17.94 323.79 35.88 334.15 17.94 344.5" fill="#173d7a" opacity=".5"/><polygon points="35.88 321 17.94 331.35 17.94 310.64 35.88 300.28 35.88 321" fill="#173d7a"/><polygon points="17.94 310.64 0 300.28 17.94 289.93 35.88 300.29 17.94 310.64" fill="#d4ecff"/><polygon points="17.94 331.35 0 321 0 300.28 17.94 310.64 17.94 331.35" fill="#5793ce"/></g><polygon points="11.48 320.16 6.46 317.27 6.46 311.47 11.48 314.37 11.48 320.16" fill="#fff"/></g><g><g><path d="M184.69,26.3L139.87,.42c-.89-.51-1.69-.53-2.32-.19,0,0,0-.03,0-.03l-4.35,2.51s1.93,.7,3.06,1.12V36.47c0,2.66,1.61,5.74,3.61,6.89l42.84,24.73v3.83l4.39-2.53h-.02c.74-.46,1.22-1.45,1.22-2.88V33.19c0-2.66-1.61-5.74-3.61-6.89Z" fill="#5793ce"/><path d="M180.27,71.79l-44.82-25.88c-1.99-1.15-3.61-4.23-3.61-6.89V5.7c0-2.66,1.61-3.88,3.61-2.73l44.82,25.88c1.99,1.15,3.61,4.23,3.61,6.89v33.33c0,2.66-1.61,3.88-3.61,2.73Z" fill="#f8d775"/><path d="M181.37,28.06L136.54,2.18c-1.26-.73-2.37-.5-3.01,.43,.56-.15,1.21-.05,1.91,.36l44.82,25.88c1.99,1.15,3.61,4.23,3.61,6.89v33.33c0,.97-.22,1.75-.59,2.29,1.01-.27,1.69-1.37,1.69-3.08V34.95c0-2.66-1.61-5.74-3.61-6.89Z" fill="#fff"/></g><g><path d="M150.52,34.43c0,1.93-1.35,2.71-3.02,1.75s-3.02-3.31-3.02-5.24,1.35-2.71,3.02-1.75,3.02,3.31,3.02,5.24Z" fill="#fff"/><path d="M159.68,39.72c0,1.93-1.35,2.71-3.02,1.75s-3.02-3.31-3.02-5.24,1.35-2.71,3.02-1.75,3.02,3.31,3.02,5.24Z" fill="#fff"/><path d="M168.84,45.01c0,1.93-1.35,2.71-3.02,1.75s-3.02-3.31-3.02-5.24,1.35-2.71,3.02-1.75,3.02,3.31,3.02,5.24Z" fill="#fff"/></g></g></g></svg>