<?xml version="1.0" encoding="UTF-8"?><svg id="Layer_2" xmlns="http://www.w3.org/2000/svg" viewBox="0 0 364.77 410.31"><g id="Layer_1-2"><polygon points="11.71 224.97 .66 236.74 0 239.81 2.93 246.33 8.22 252.32 29.97 268.79 37.75 278.37 37.77 278.53 37.99 279.3 39.13 285.86 31.52 302.16 29.77 310.25 29.3 319.83 30.47 328.71 33.48 335.43 38.22 341.51 36.7 343.02 34.43 352.39 30.12 355.92 27.83 356.2 29.83 366.39 28.44 371.62 27.07 374.05 26.77 375.64 26.94 378.75 26.77 380.22 26.86 380.43 30.35 383.92 30.87 384.93 34.19 391.02 33.76 405.53 56.66 398.37 65.27 402.32 70.92 406.12 80.86 410.31 65.54 397.93 63.58 389.37 65.36 381.47 69.76 375.65 76.05 374.63 82.5 377.32 95.86 385.6 100.82 387.75 103.79 386.81 106.32 384.07 105.37 375.65 103.76 370.99 99.2 365 108.67 361.17 116.49 359.96 119.52 360.67 121.25 361.79 122.72 363.04 123.93 363.68 125.5 364.02 130.14 364.15 133.35 365.28 135.32 369.41 134.06 372.54 132.53 374.76 131.68 376.22 131.67 376.31 131.76 376.38 134.04 377.63 135.93 377.73 150.08 375.56 155.01 376.26 158.75 378.53 165.51 384.12 168.44 385.31 169.9 384.73 172.5 382.78 174.89 380.49 175.51 379.61 175.55 379.46 175.38 378.63 168.69 363.92 185.69 363.1 193.39 359.32 197.42 359.13 201.3 361.01 204.2 363.2 208.93 364.89 210.84 364.99 212.36 364.52 213.55 363.58 215.95 360.55 220.02 356.88 224.07 352.2 229.6 348.91 234.72 347.48 239.34 347.8 243.46 351.77 244.47 355.24 245.57 360.81 248.19 367.78 249.52 369.87 257.23 379.71 258.51 383.26 258.62 386.82 256.86 389.87 254.13 392.48 254.11 392.54 254.18 392.96 255.08 394.29 256.06 395.16 258.13 395.89 271.77 396.38 273.43 395.93 274.21 395.32 278.4 387.5 281.44 383.25 290.65 374.12 296.82 370.41 299.59 368.02 302.62 363.56 306.13 352.61 310.15 348.23 315.29 344.73 339.67 332.45 351.65 321.14 345.34 315.22 342.32 310.41 341.77 310 339.8 311.21 335.62 312.83 325.69 313.52 326.95 306.27 332.58 298.4 334.23 293.12 333.8 291.01 331.44 286.03 333.41 279.7 344.1 264.2 347.31 260.79 351.21 257.74 356.11 254.67 361.92 249.89 364.77 244.31 363.04 238.93 353.35 234.79 349.22 233.73 346.29 230.68 344.81 228.47 343.8 227.67 342.5 227.4 332.82 228.02 288.41 206.34 283.99 204.94 277.37 204.02 270.98 210.24 247.26 209.1 246.1 209.5 244.27 210.79 238.9 216.38 235.91 218.52 233.09 219.68 231.33 220.06 230.44 220.46 227.65 224.17 214.58 222.59 208.52 219.13 204.73 216.36 203.02 211.72 204.72 206.91 205.56 202.96 205.71 201.65 205.65 199.47 206.23 196.62 206.78 195.6 206.7 192.42 205.43 185.79 200.52 168.28 199.03 159.62 198.79 152.94 199.35 148.58 198.99 136.03 198.28 132.28 197.55 130.15 191.44 122.28 190.2 118.46 192.05 114.65 195.58 111.29 196.39 109.9 197.94 105.17 199.21 102.54 200.96 100.13 202.47 98.5 203.49 97.05 198.53 96.37 191.39 92.64 177.59 81.88 177.19 80.97 170.48 64.4 169.03 58.95 168.76 54.73 169.53 46.44 170.41 41.78 173.51 35.15 175.34 32.27 174.89 24.88 171.88 12.43 167 3.02 161.27 0 154.77 3.05 144.56 12.24 134.88 23.62 128.9 33.27 126.85 39.73 124.66 53.23 121.93 60.79 116.15 67.24 110.46 70.46 107.19 73.28 105.17 80.42 100.31 90.4 94.68 99.5 87.58 107.51 80.43 112.17 75.61 120.06 55.64 142.96 53.96 145.42 50.62 153.15 50.04 156.05 50.24 162.87 49.51 167.09 11.71 224.97" fill="#0d172e"/></g></svg>